HIERARCHY
ROOT hip
{
  OFFSET -132.976 87.319 24.102
  CHANNELS 6 Xposition Yposition Zposition Zrotation Xrotation Yrotation
  JOINT abdomen
  {
    OFFSET 0 20.6881 -0.73152
    CHANNELS 3 Zrotation Xrotation Yrotation
    JOINT chest
    {
      OFFSET 0 11.7043 -0.48768
      CHANNELS 3 Zrotation Xrotation Yrotation
      JOINT neck
      {
        OFFSET 0 22.1894 -2.19456
        CHANNELS 3 Zrotation Xrotation Yrotation
        JOINT head
        {
          OFFSET -0.24384 7.07133 1.2192
          CHANNELS 3 Zrotation Xrotation Yrotation
          JOINT leftEye
          {
            OFFSET 4.14528 8.04674 8.04672
            CHANNELS 3 Zrotation Xrotation Yrotation
            End Site
            {
              OFFSET 1 0 0
            }
          }
          JOINT rightEye
          {
            OFFSET -3.6576 8.04674 8.04672
            CHANNELS 3 Zrotation Xrotation Yrotation
            End Site
            {
              OFFSET 1 0 0
            }
          }
        }
      }
      JOINT rCollar
      {
        OFFSET -2.68224 19.2634 -4.8768
        CHANNELS 3 Zrotation Xrotation Yrotation
        JOINT rShldr
        {
          OFFSET -8.77824 -1.95073 1.46304
          CHANNELS 3 Zrotation Xrotation Yrotation
          JOINT rForeArm
          {
            OFFSET -28.1742 -1.7115 0.48768
            CHANNELS 3 Zrotation Xrotation Yrotation
            JOINT rHand
            {
              OFFSET -22.5879 0.773209 7.07136
              CHANNELS 3 Zrotation Xrotation Yrotation
              JOINT rThumb1
              {
                OFFSET -1.2192 -0.487915 3.41376
                CHANNELS 3 Zrotation Xrotation Yrotation
                JOINT rThumb2
                {
                  OFFSET -3.37035 -0.52449 3.41376
                  CHANNELS 3 Zrotation Xrotation Yrotation
                  End Site
                  {
                    OFFSET -1.78271 -1.18214 1.43049
                  }
                }
              }
              JOINT rIndex1
              {
                OFFSET -7.75947 0.938293 5.60832
                CHANNELS 3 Zrotation Xrotation Yrotation
                JOINT rIndex2
                {
                  OFFSET -2.54057 -0.884171 1.56538
                  CHANNELS 3 Zrotation Xrotation Yrotation
                  End Site
                  {
                    OFFSET -1.62519 -0.234802 1.16502
                  }
                }
              }
              JOINT rMid1
              {
                OFFSET -8.24714 1.18213 3.41376
                CHANNELS 3 Zrotation Xrotation Yrotation
                JOINT rMid2
                {
                  OFFSET -3.10165 -0.590103 1.0647
                  CHANNELS 3 Zrotation Xrotation Yrotation
                  End Site
                  {
                    OFFSET -2.48547 -0.328903 0.83742
                  }
                }
              }
              JOINT rRing1
              {
                OFFSET -8.82822 0.546677 1.51678
                CHANNELS 3 Zrotation Xrotation Yrotation
                JOINT rRing2
                {
                  OFFSET -2.60934 -0.819778 -0.0198488
                  CHANNELS 3 Zrotation Xrotation Yrotation
                  End Site
                  {
                    OFFSET -2.33842 -0.294052 0.168128
                  }
                }
              }
              JOINT rPinky1
              {
                OFFSET -8.27202 -0.0477905 -0.4584
                CHANNELS 3 Zrotation Xrotation Yrotation
                JOINT rPinky2
                {
                  OFFSET -1.82734 -0.647385 -0.700984
                  CHANNELS 3 Zrotation Xrotation Yrotation
                  End Site
                  {
                    OFFSET -1.69225 -0.51767 -0.607171
                  }
                }
              }
            }
          }
        }
      }
      JOINT lCollar
      {
        OFFSET 2.68224 19.2634 -4.8768
        CHANNELS 3 Zrotation Xrotation Yrotation
        JOINT lShldr
        {
          OFFSET 8.77824 -1.95073 1.46304
          CHANNELS 3 Zrotation Xrotation Yrotation
          JOINT lForeArm
          {
            OFFSET 28.1742 -1.7115 0.48768
            CHANNELS 3 Zrotation Xrotation Yrotation
            JOINT lHand
            {
              OFFSET 22.5879 0.773209 7.07136
              CHANNELS 3 Zrotation Xrotation Yrotation
              JOINT lThumb1
              {
                OFFSET 1.2192 -0.487915 3.41376
                CHANNELS 3 Zrotation Xrotation Yrotation
                JOINT lThumb2
                {
                  OFFSET 3.37035 -0.52449 3.41376
                  CHANNELS 3 Zrotation Xrotation Yrotation
                  End Site
                  {
                    OFFSET 1.78271 -1.18214 1.43049
                  }
                }
              }
              JOINT lIndex1
              {
                OFFSET 7.75947 0.938293 5.60832
                CHANNELS 3 Zrotation Xrotation Yrotation
                JOINT lIndex2
                {
                  OFFSET 2.54057 -0.884171 1.56538
                  CHANNELS 3 Zrotation Xrotation Yrotation
                  End Site
                  {
                    OFFSET 1.62519 -0.234802 1.16502
                  }
                }
              }
              JOINT lMid1
              {
                OFFSET 8.24714 1.18213 3.41376
                CHANNELS 3 Zrotation Xrotation Yrotation
                JOINT lMid2
                {
                  OFFSET 3.10165 -0.590103 1.0647
                  CHANNELS 3 Zrotation Xrotation Yrotation
                  End Site
                  {
                    OFFSET 2.48547 -0.328903 0.83742
                  }
                }
              }
              JOINT lRing1
              {
                OFFSET 8.82822 0.546677 1.51678
                CHANNELS 3 Zrotation Xrotation Yrotation
                JOINT lRing2
                {
                  OFFSET 2.60934 -0.819778 -0.0198488
                  CHANNELS 3 Zrotation Xrotation Yrotation
                  End Site
                  {
                    OFFSET 2.33842 -0.294052 0.168128
                  }
                }
              }
              JOINT lPinky1
              {
                OFFSET 8.27202 -0.0477905 -0.4584
                CHANNELS 3 Zrotation Xrotation Yrotation
                JOINT lPinky2
                {
                  OFFSET 1.82734 -0.647385 -0.700984
                  CHANNELS 3 Zrotation Xrotation Yrotation
                  End Site
                  {
                    OFFSET 1.69225 -0.51767 -0.607171
                  }
                }
              }
            }
          }
        }
      }
    }
  }
  JOINT rButtock
  {
    OFFSET -8.77824 4.35084 1.2192
    CHANNELS 3 Zrotation Xrotation Yrotation
    JOINT rThigh
    {
      OFFSET 0 -1.70687 -2.19456
      CHANNELS 3 Zrotation Xrotation Yrotation
      JOINT rShin
      {
        OFFSET 0 -36.8199 0.73152
        CHANNELS 3 Zrotation Xrotation Yrotation
        JOINT rFoot
        {
          OFFSET 0.73152 -45.1104 -5.12064
          CHANNELS 3 Zrotation Xrotation Yrotation
          End Site
          {
            OFFSET -1.1221 -3.69964 12.103
          }
        }
      }
    }
  }
  JOINT lButtock
  {
    OFFSET 8.77824 4.35084 1.2192
    CHANNELS 3 Zrotation Xrotation Yrotation
    JOINT lThigh
    {
      OFFSET 0 -1.70687 -2.19456
      CHANNELS 3 Zrotation Xrotation Yrotation
      JOINT lShin
      {
        OFFSET 0 -36.8199 0.73152
        CHANNELS 3 Zrotation Xrotation Yrotation
        JOINT lFoot
        {
          OFFSET -0.73152 -45.1104 -5.12064
          CHANNELS 3 Zrotation Xrotation Yrotation
          End Site
          {
            OFFSET 1.1221 -3.69964 12.103
          }
        }
      }
    }
  }
}
MOTION
Frames:	9
Frame Time:	0.00833333
-135.071 83.4014 36.5636 -5.69275 2.29608 83.335 -2.36838 -3.40413 9.69577 -0.459982 -0.249415 2.69645 -4.51098 0.127552 -1.06468 12.1105 -14.1148 0.558761 -0 0 0 -0 0 0 -1.72316e-014 2.80628e-013 -2.3808e-014 27.1547 23.0444 62.4055 -28.0439 -30.8792 68.6528 -0.693211 22.9567 3.41288 6.96849e-010 -3.13248e-009 -1.6942e-009 1.17387e-009 -5.38008e-009 -2.93743e-009 6.96855e-010 -3.13247e-009 -1.6942e-009 7.73091 5.47488 0.417314 6.96842e-010 -3.13248e-009 -1.69419e-009 2.90554 0.965183 0.102902 6.96856e-010 -3.13248e-009 -1.6942e-009 10.2786 0.731801 0.0259123 6.96843e-010 -3.13248e-009 -1.69419e-009 2.22167 -0.733487 -0.20892 -1.73277e-014 2.80621e-013 -2.40258e-014 -45.4435 28.8904 -51.4949 27.1558 -26.8725 -62.2706 0.0713106 7.5982 -1.07422 2.4384e-009 -3.78799e-010 -5.5057e-010 4.21167e-009 -6.56077e-010 -9.71283e-010 2.4384e-009 -3.78795e-010 -5.50563e-010 -7.73091 5.47488 -0.417314 2.43841e-009 -3.78798e-010 -5.50583e-010 -2.90554 0.965183 -0.102902 2.4384e-009 -3.78794e-010 -5.50572e-010 -10.2786 0.731801 -0.0259123 2.4384e-009 -3.78794e-010 -5.50586e-010 -2.22167 -0.733487 0.20892 -2.03217e-016 0 -3.88251e-019 -7.80791 -30.2584 -16.9872 -0.835794 54.6697 1.0122 -0.631724 5.99087 -18.7251 2.03217e-016 0 3.88251e-019 -0.486782 -20.7329 -2.79157 0.0274322 24.9538 -0.247582 0.304055 -7.01863 -1.42832 
-135.916 83.4452 36.6148 -5.73364 2.21168 82.9306 -2.55845 -3.42365 9.44955 -0.399624 -0.322719 2.6324 -4.60699 0.26526 -1.14532 12.3121 -14.5205 0.481558 -0 0 0 -0 0 0 -1.03953e-013 -7.35754e-014 5.93341e-014 26.8285 21.8829 63.0267 -28.0162 -30.7092 68.3829 -0.682939 22.7976 3.38648 1.46398e-009 -4.62114e-009 -2.01354e-009 2.49248e-009 -7.95945e-009 -3.50278e-009 1.46399e-009 -4.62114e-009 -2.01355e-009 7.73091 5.47488 0.417314 1.46398e-009 -4.62114e-009 -2.01354e-009 2.90554 0.965183 0.102902 1.46399e-009 -4.62114e-009 -2.01354e-009 10.2786 0.731801 0.0259123 1.46398e-009 -4.62114e-009 -2.01353e-009 2.22167 -0.733487 -0.20892 -1.04082e-013 -7.35758e-014 5.90825e-014 -44.3623 28.0309 -53.3163 27.136 -26.8028 -62.1606 0.0670688 7.36845 -1.04137 2.93528e-009 -4.6289e-010 -6.20254e-010 5.07057e-009 -8.0144e-010 -1.09439e-009 2.93528e-009 -4.62888e-010 -6.20246e-010 -7.73091 5.47488 -0.417314 2.93528e-009 -4.62891e-010 -6.20262e-010 -2.90554 0.965183 -0.102902 2.93527e-009 -4.62888e-010 -6.20255e-010 -10.2786 0.731801 -0.0259123 2.93528e-009 -4.62888e-010 -6.20265e-010 -2.22167 -0.733487 0.20892 -2.03217e-016 0 -3.88251e-019 -8.33904 -30.8374 -17.4632 -0.794339 53.835 0.989489 -0.795468 5.50313 -18.8621 2.03217e-016 0 3.88251e-019 -0.58227 -20.0398 -2.78079 0.0209139 24.6859 -0.275428 0.264158 -7.38989 -1.61239 
-136.761 83.487 36.6604 -5.78152 2.13782 82.5406 -2.73317 -3.45164 9.2044 -0.339328 -0.396523 2.56877 -4.70032 0.400554 -1.22243 12.5083 -14.9233 0.410636 -0 0 0 -0 0 0 -1.93138e-013 -4.59473e-013 1.29557e-013 26.5185 20.708 63.6429 -27.9844 -30.5211 68.0836 -0.673195 22.6452 3.36126 2.29985e-009 -6.20508e-009 -2.34132e-009 3.92985e-009 -1.07047e-008 -4.08373e-009 2.29985e-009 -6.20507e-009 -2.34134e-009 7.73091 5.47488 0.417314 2.29985e-009 -6.20508e-009 -2.34132e-009 2.90554 0.965183 0.102902 2.29985e-009 -6.20508e-009 -2.34132e-009 10.2786 0.731801 0.0259123 2.29985e-009 -6.20507e-009 -2.34132e-009 2.22167 -0.733487 -0.20892 -1.93293e-013 -4.59466e-013 1.29273e-013 -43.3548 27.1312 -55.0797 27.1116 -26.7178 -62.0258 0.0626164 7.11955 -1.00582 3.42505e-009 -5.73235e-010 -6.36178e-010 5.91716e-009 -9.92162e-010 -1.12407e-009 3.42504e-009 -5.73235e-010 -6.36169e-010 -7.73091 5.47488 -0.417314 3.42505e-009 -5.73237e-010 -6.36182e-010 -2.90554 0.965183 -0.102902 3.42504e-009 -5.73237e-010 -6.36179e-010 -10.2786 0.731801 -0.0259123 3.42505e-009 -5.73236e-010 -6.36185e-010 -2.22167 -0.733487 0.20892 -2.03217e-016 0 -3.88251e-019 -8.84196 -31.3767 -17.9043 -0.749711 52.8803 0.963602 -0.961286 5.00694 -18.9769 2.03217e-016 0 3.88251e-019 -0.660858 -19.3454 -2.76607 0.0148658 24.4035 -0.302595 0.223216 -7.75014 -1.78542 
-137.606 83.5265 36.7031 -5.83572 2.06141 82.1683 -2.89277 -3.4879 8.96108 -0.278181 -0.470032 2.50574 -4.78978 0.531664 -1.29496 12.6976 -15.3196 0.347154 -0 0 0 -0 0 0 -2.44806e-013 -7.09468e-013 1.49585e-013 26.2236 19.526 64.2498 -27.9491 -30.3168 67.7545 -0.664289 22.5044 3.33803 2.94387e-009 -7.4044e-009 -2.59931e-009 5.03772e-009 -1.27837e-008 -4.54044e-009 2.94387e-009 -7.4044e-009 -2.59932e-009 7.73091 5.47488 0.417314 2.94387e-009 -7.40441e-009 -2.59931e-009 2.90554 0.965183 0.102902 2.94388e-009 -7.4044e-009 -2.59931e-009 10.2786 0.731801 0.0259123 2.94387e-009 -7.4044e-009 -2.5993e-009 2.22167 -0.733487 -0.20892 -2.44965e-013 -7.09458e-013 1.49287e-013 -42.4287 26.1998 -56.7751 27.0826 -26.6178 -61.8651 0.0579366 6.85233 -0.967696 3.60491e-009 -6.30313e-010 -4.49692e-010 6.22866e-009 -1.0907e-009 -8.01728e-010 3.60491e-009 -6.30314e-010 -4.49683e-010 -7.73091 5.47488 -0.417314 3.60491e-009 -6.30316e-010 -4.49692e-010 -2.90554 0.965183 -0.102902 3.6049e-009 -6.30316e-010 -4.49691e-010 -10.2786 0.731801 -0.0259123 3.60492e-009 -6.30315e-010 -4.49695e-010 -2.22167 -0.733487 0.20892 -2.03217e-016 0 -3.88251e-019 -9.31422 -31.8765 -18.303 -0.703831 51.8201 0.935212 -1.11857 4.53072 -19.0653 2.03217e-016 0 3.88251e-019 -0.724241 -18.6508 -2.74792 0.00955616 24.111 -0.328278 0.18055 -8.09696 -1.95124 
-138.451 83.5552 36.7433 -5.89631 1.98842 81.8138 -3.03592 -3.53263 8.71929 -0.216025 -0.543973 2.44326 -4.87589 0.659099 -1.36308 12.8802 -15.7104 0.29111 -0 0 0 -0 0 0 -2.43845e-013 -7.79371e-013 8.36138e-014 25.9436 18.3384 64.8542 -27.9089 -30.0933 67.3953 -0.656009 22.3727 3.31632 3.41218e-009 -8.2698e-009 -2.83113e-009 5.84355e-009 -1.42834e-008 -4.94821e-009 3.41218e-009 -8.2698e-009 -2.83115e-009 7.73091 5.47488 0.417314 3.41218e-009 -8.2698e-009 -2.83114e-009 2.90554 0.965183 0.102902 3.41219e-009 -8.2698e-009 -2.83113e-009 10.2786 0.731801 0.0259123 3.41218e-009 -8.2698e-009 -2.83113e-009 2.22167 -0.733487 -0.20892 -2.43968e-013 -7.79365e-013 8.333e-014 -41.5818 25.2391 -58.4082 27.0484 -26.5008 -61.6779 0.0531935 6.56873 -0.927279 3.36063e-009 -6.14967e-010 1.04711e-010 5.8081e-009 -1.06385e-009 1.59779e-010 3.36062e-009 -6.14969e-010 1.0472e-010 -7.73091 5.47488 -0.417314 3.36063e-009 -6.1497e-010 1.04713e-010 -2.90554 0.965183 -0.102902 3.36062e-009 -6.14971e-010 1.04714e-010 -10.2786 0.731801 -0.0259123 3.36063e-009 -6.14969e-010 1.04711e-010 -2.22167 -0.733487 0.20892 -2.03217e-016 0 -3.88251e-019 -9.75059 -32.3351 -18.6568 -0.656759 50.6394 0.904571 -1.26672 4.07191 -19.1213 2.03217e-016 0 3.88251e-019 -0.76974 -17.9547 -2.72506 0.00505125 23.8052 -0.352742 0.136259 -8.43068 -2.11003 
-139.298 83.5834 36.7819 -5.96285 1.93022 81.4751 -3.16315 -3.58587 8.47877 -0.153317 -0.618456 2.38126 -4.95906 0.783476 -1.42721 13.0571 -16.0971 0.24205 -0 0 0 -0 0 0 -2.1306e-013 -7.58401e-013 -3.98563e-014 25.6786 17.1473 65.4635 -27.8629 -29.849 67.0079 -0.648248 22.2486 3.2959 3.81521e-009 -8.99765e-009 -3.05703e-009 6.53743e-009 -1.55445e-008 -5.34409e-009 3.81521e-009 -8.99765e-009 -3.05705e-009 7.73091 5.47488 0.417314 3.81521e-009 -8.99764e-009 -3.05703e-009 2.90554 0.965183 0.102902 3.81522e-009 -8.99764e-009 -3.05703e-009 10.2786 0.731801 0.0259123 3.81521e-009 -8.99764e-009 -3.05702e-009 2.22167 -0.733487 -0.20892 -2.1312e-013 -7.58401e-013 -4.01079e-014 -40.8106 24.2517 -59.9862 27.0086 -26.3667 -61.4656 0.0484671 6.26775 -0.884441 2.86486e-009 -5.68925e-010 9.05795e-010 4.95349e-009 -9.83812e-010 1.5498e-009 2.86486e-009 -5.68927e-010 9.05803e-010 -7.73091 5.47488 -0.417314 2.86486e-009 -5.68929e-010 9.05798e-010 -2.90554 0.965183 -0.102902 2.86485e-009 -5.68929e-010 9.058e-010 -10.2786 0.731801 -0.0259123 2.86487e-009 -5.68928e-010 9.05798e-010 -2.22167 -0.733487 0.20892 -2.03217e-016 0 -3.88251e-019 -10.1499 -32.7543 -18.9675 -0.60854 49.3367 0.872159 -1.40938 3.61831 -19.1488 2.03217e-016 0 3.88251e-019 -0.797798 -17.2572 -2.69777 0.00120583 23.4852 -0.37626 0.0910823 -8.75227 -2.25996 
-140.145 83.6106 36.8189 -6.03435 1.87863 81.1543 -3.27746 -3.64722 8.2404 -0.0900559 -0.691761 2.3199 -5.03803 0.903189 -1.48665 13.2275 -16.476 0.20047 -0 0 0 -0 0 0 -1.69353e-013 -6.79069e-013 -1.61637e-013 25.4284 15.9597 66.0734 -27.8116 -29.5882 66.5945 -0.641452 22.1391 3.27793 4.03385e-009 -9.32665e-009 -3.16362e-009 6.91497e-009 -1.61161e-008 -5.53086e-009 4.03384e-009 -9.32665e-009 -3.16364e-009 7.73091 5.47488 0.417314 4.03384e-009 -9.32664e-009 -3.16363e-009 2.90554 0.965183 0.102902 4.03385e-009 -9.32664e-009 -3.16362e-009 10.2786 0.731801 0.0259123 4.03385e-009 -9.32664e-009 -3.16362e-009 2.22167 -0.733487 -0.20892 -1.69354e-013 -6.79074e-013 -1.61855e-013 -40.1194 23.2475 -61.5027 26.9637 -26.2177 -61.2293 0.0436351 5.94574 -0.838667 2.24514e-009 -5.03993e-010 1.6721e-009 3.88447e-009 -8.71146e-010 2.88027e-009 2.24514e-009 -5.03995e-010 1.67211e-009 -7.73091 5.47488 -0.417314 2.24514e-009 -5.03996e-010 1.6721e-009 -2.90554 0.965183 -0.102902 2.24514e-009 -5.03996e-010 1.67211e-009 -10.2786 0.731801 -0.0259123 2.24515e-009 -5.03995e-010 1.6721e-009 -2.22167 -0.733487 0.20892 -2.03217e-016 0 -3.88251e-019 -10.5161 -33.14 -19.2339 -0.560868 47.947 0.838774 -1.54233 3.18388 -19.1581 2.03217e-016 0 3.88251e-019 -0.814654 -16.561 -2.66888 -0.00198258 23.1589 -0.398059 0.0452312 -9.06033 -2.40194 
-140.994 83.6366 36.8546 -6.11013 1.82386 80.8534 -3.38184 -3.71623 8.00507 -0.0262307 -0.762163 2.25932 -5.11156 1.01663 -1.54074 13.3908 -16.8437 0.166872 -0 0 0 -0 0 0 -1.29625e-013 -5.73887e-013 -2.22539e-013 25.1922 14.7824 66.6797 -27.756 -29.3153 66.1572 -0.63605 22.0513 3.26354 3.94896e-009 -8.9955e-009 -3.03755e-009 6.77176e-009 -1.55468e-008 -5.31131e-009 3.94896e-009 -8.9955e-009 -3.03757e-009 7.73091 5.47488 0.417314 3.94895e-009 -8.99549e-009 -3.03756e-009 2.90554 0.965183 0.102902 3.94897e-009 -8.99549e-009 -3.03755e-009 10.2786 0.731801 0.0259123 3.94896e-009 -8.99549e-009 -3.03755e-009 2.22167 -0.733487 -0.20892 -1.29599e-013 -5.73895e-013 -2.22738e-013 -39.5115 22.2363 -62.9519 26.9143 -26.0561 -60.9701 0.0386044 5.5991 -0.789441 1.62903e-009 -4.31973e-010 2.12216e-009 2.8207e-009 -7.46419e-010 3.66312e-009 1.62903e-009 -4.31975e-010 2.12216e-009 -7.73091 5.47488 -0.417314 1.62903e-009 -4.31976e-010 2.12216e-009 -2.90554 0.965183 -0.102902 1.62902e-009 -4.31976e-010 2.12217e-009 -10.2786 0.731801 -0.0259123 1.62904e-009 -4.31975e-010 2.12216e-009 -2.22167 -0.733487 0.20892 -2.03217e-016 0 -3.88251e-019 -10.853 -33.4976 -19.4553 -0.515238 46.5056 0.804997 -1.66168 2.78267 -19.1592 2.03217e-016 0 3.88251e-019 -0.826397 -15.8688 -2.64117 -0.00448298 22.8341 -0.41738 -0.00110026 -9.35344 -2.53687 
-141.844 83.6612 36.889 -6.1912 1.76788 80.5728 -3.47641 -3.79417 7.77281 0.0382577 -0.829607 2.19958 -5.17993 1.12353 -1.58962 13.5475 -17.2002 0.141252 -0 0 0 -0 0 0 -9.3487e-014 -4.14413e-013 -1.85569e-013 24.9699 13.6162 67.2873 -27.6949 -29.0266 65.6944 -0.631951 21.9843 3.25256 3.41695e-009 -7.66662e-009 -2.55452e-009 5.86186e-009 -1.32539e-008 -4.46878e-009 3.41695e-009 -7.66662e-009 -2.55454e-009 7.73091 5.47488 0.417314 3.41694e-009 -7.66661e-009 -2.55452e-009 2.90554 0.965183 0.102902 3.41696e-009 -7.66661e-009 -2.55452e-009 10.2786 0.731801 0.0259123 3.41695e-009 -7.66661e-009 -2.55452e-009 2.22167 -0.733487 -0.20892 -9.3487e-014 -4.14419e-013 -1.85766e-013 -38.983 21.2192 -64.34 26.8594 -25.8793 -60.6864 0.033592 5.22796 -0.736803 9.58144e-010 -3.46315e-010 2.14379e-009 1.66085e-009 -5.98403e-010 3.70438e-009 9.58142e-010 -3.46314e-010 2.1438e-009 -7.73091 5.47488 -0.417314 9.58142e-010 -3.46316e-010 2.14379e-009 -2.90554 0.965183 -0.102902 9.58134e-010 -3.46316e-010 2.1438e-009 -10.2786 0.731801 -0.0259123 9.58151e-010 -3.46315e-010 2.1438e-009 -2.22167 -0.733487 0.20892 -2.03217e-016 0 -3.88251e-019 -11.1595 -33.8259 -19.6311 -0.471779 44.9975 0.770769 -1.7659 2.41694 -19.149 2.03217e-016 0 3.88251e-019 -0.832895 -15.1788 -2.6142 -0.00613779 22.5057 -0.434246 -0.0476812 -9.6317 -2.66376 
